<svg xmlns="http://www.w3.org/2000/svg" xmlns:xlink="http://www.w3.org/1999/xlink" width="100" zoomAndPan="magnify" viewBox="0 0 75 74.999997" height="100" preserveAspectRatio="xMidYMid meet" version="1.2"><g id="76a3ae5f74"><rect x="0" width="75" y="0" height="74.999997" style="fill:#ffffff;fill-opacity:1;stroke:none;"/><rect x="0" width="75" y="0" height="74.999997" style="fill:#ffffff;fill-opacity:1;stroke:none;"/><path style=" stroke:none;fill-rule:evenodd;fill:#000000;fill-opacity:1;" d="M 52.304688 20.089844 C 52.304688 21.527344 51.128906 22.703125 49.691406 22.703125 C 48.257812 22.703125 47.082031 21.527344 47.082031 20.089844 L 47.082031 14.867188 C 47.082031 9.578125 42.789062 5.285156 37.5 5.285156 C 32.210938 5.285156 27.917969 9.578125 27.917969 14.867188 L 27.917969 20.089844 C 27.917969 21.527344 26.742188 22.703125 25.308594 22.703125 C 23.871094 22.703125 22.695312 21.527344 22.695312 20.089844 L 22.695312 14.867188 C 22.695312 6.691406 29.320312 0.0625 37.5 0.0625 C 45.679688 0.0625 52.304688 6.691406 52.304688 14.867188 Z M 52.304688 20.089844 "/><path style=" stroke:none;fill-rule:evenodd;fill:#000000;fill-opacity:1;" d="M 63.0625 24.792969 L 65.851562 66.578125 C 66 68.75 65.234375 70.871094 63.765625 72.457031 C 62.277344 74.039062 60.207031 74.9375 58.035156 74.9375 L 16.964844 74.9375 C 14.792969 74.9375 12.722656 74.039062 11.234375 72.457031 C 9.75 70.871094 9 68.75 9.148438 66.578125 L 11.9375 24.792969 C 12.214844 20.679688 15.628906 17.480469 19.757812 17.480469 L 55.257812 17.480469 C 59.371094 17.480469 62.785156 20.679688 63.0625 24.792969 Z M 46.152344 32.90625 C 44.617188 36.136719 41.320312 38.375 37.5 38.375 C 33.679688 38.375 30.382812 36.136719 28.847656 32.90625 C 28.230469 31.597656 26.679688 31.042969 25.371094 31.664062 C 24.066406 32.285156 23.511719 33.835938 24.132812 35.140625 C 26.5 40.136719 31.605469 43.597656 37.5 43.597656 C 43.394531 43.597656 48.5 40.136719 50.867188 35.140625 C 51.488281 33.835938 50.933594 32.285156 49.628906 31.664062 C 48.339844 31.042969 46.769531 31.597656 46.152344 32.90625 Z M 46.152344 32.90625 "/></g></svg>