<svg xmlns="http://www.w3.org/2000/svg" xmlns:xlink="http://www.w3.org/1999/xlink" width="100" zoomAndPan="magnify" viewBox="0 0 75 74.999997" height="100" preserveAspectRatio="xMidYMid meet" version="1.2"><defs><clipPath id="591027b288"><path d="M 9.75 0 L 53 0 L 53 75 L 9.75 75 Z M 9.75 0 "/></clipPath><clipPath id="84b58d9434"><path d="M 21 19 L 65.25 19 L 65.25 56 L 21 56 Z M 21 19 "/></clipPath></defs><g id="d39fccb263"><rect x="0" width="75" y="0" height="74.999997" style="fill:#ffffff;fill-opacity:1;stroke:none;"/><rect x="0" width="75" y="0" height="74.999997" style="fill:#ffffff;fill-opacity:1;stroke:none;"/><path style=" stroke:none;fill-rule:nonzero;fill:#000000;fill-opacity:1;" d="M 58.695312 58.699219 C 57.34375 58.699219 56.25 59.792969 56.25 61.144531 C 56.25 62.496094 57.347656 63.589844 58.695312 63.589844 C 60.046875 63.589844 61.140625 62.496094 61.140625 61.144531 C 61.140625 59.792969 60.046875 58.699219 58.695312 58.699219 Z M 58.695312 58.699219 "/><g clip-rule="nonzero" clip-path="url(#591027b288)"><path style=" stroke:none;fill-rule:nonzero;fill:#000000;fill-opacity:1;" d="M 13.042969 9.78125 L 52.175781 9.78125 L 52.175781 6.523438 C 52.175781 2.933594 49.238281 0 45.652344 0 L 16.304688 0 C 12.714844 0 9.78125 2.933594 9.78125 6.523438 L 9.78125 68.480469 C 9.78125 72.070312 12.714844 75.003906 16.304688 75.003906 L 45.652344 75.003906 C 49.238281 75.003906 52.175781 72.070312 52.175781 68.480469 L 52.175781 61.960938 L 13.042969 61.960938 Z M 26.859375 66.613281 L 35.09375 66.613281 C 35.992188 66.613281 36.71875 67.339844 36.71875 68.238281 C 36.71875 69.132812 35.992188 69.859375 35.09375 69.859375 L 26.859375 69.859375 C 25.964844 69.859375 25.234375 69.132812 25.234375 68.238281 C 25.234375 67.339844 25.964844 66.613281 26.859375 66.613281 Z M 26.859375 66.613281 "/></g><g clip-rule="nonzero" clip-path="url(#84b58d9434)"><path style=" stroke:none;fill-rule:nonzero;fill:#000000;fill-opacity:1;" d="M 59.1875 45.652344 C 60.785156 45.652344 62.152344 44.511719 62.414062 42.914062 L 65.21875 26.089844 L 35.347656 26.089844 L 30.621094 20.175781 C 30.308594 19.789062 29.84375 19.566406 29.347656 19.566406 L 22.824219 19.566406 C 21.925781 19.566406 21.195312 20.296875 21.195312 21.195312 C 21.195312 22.097656 21.925781 22.828125 22.824219 22.828125 L 28.5625 22.828125 L 33 28.375 L 35.871094 45.652344 L 35.871094 50.546875 C 35.871094 53.242188 38.0625 55.4375 40.761719 55.4375 L 60.328125 55.4375 C 61.226562 55.4375 61.957031 54.707031 61.957031 53.808594 C 61.957031 52.90625 61.226562 52.175781 60.328125 52.175781 L 40.761719 52.175781 C 39.859375 52.175781 39.128906 51.445312 39.128906 50.546875 L 39.128906 45.652344 Z M 53.804688 42.394531 L 44.023438 42.394531 C 43.109375 42.394531 42.390625 41.675781 42.390625 40.761719 C 42.390625 39.847656 43.109375 39.132812 44.023438 39.132812 L 53.804688 39.132812 C 54.71875 39.132812 55.433594 39.847656 55.433594 40.761719 C 55.433594 41.675781 54.71875 42.394531 53.804688 42.394531 Z M 40.761719 32.609375 L 57.066406 32.609375 C 57.980469 32.609375 58.695312 33.328125 58.695312 34.242188 C 58.695312 35.152344 57.980469 35.871094 57.066406 35.871094 L 40.761719 35.871094 C 39.847656 35.871094 39.128906 35.152344 39.128906 34.242188 C 39.128906 33.328125 39.847656 32.609375 40.761719 32.609375 Z M 40.761719 32.609375 "/></g></g></svg>